<!-- Generator: Adobe Illustrator 21.0.0, SVG Export Plug-In . SVG Version: 6.00 Build 0)  -->
<svg version="1.1" id="Layer_1" xmlns="http://www.w3.org/2000/svg" xmlns:xlink="http://www.w3.org/1999/xlink" x="0px" y="0px"
	 viewBox="0 0 32 32" style="enable-background:new 0 0 32 32;" xml:space="preserve">
<path d="M31.6,14.2c0-2.4-2-4.4-4.4-4.4l-0.5,0c-2.8,0-4.5-0.3-5.1-0.5c0-0.3,0-0.5,0-0.8c0-0.2,0.1-0.4,0.1-0.6
	c0.1-0.4,0.1-0.7,0.1-1c0.2-2.6-0.3-4.7-1.4-5.9C19.9,0.3,19.2,0,18.6,0c-0.2,0-1.9,0-2.8,1c-0.4,0.4-0.6,1-0.5,1.6
	c0,0.1,0.3,2.4-0.3,4.3c-0.8,1.3-2.5,3.4-4.1,4.9c-0.1-0.2-0.3-0.5-0.5-0.6c-0.3-0.2-0.7-0.2-1-0.1l-8,2.3c-0.7,0.2-1.1,0.9-0.9,1.6
	l4.7,15.9C5.3,31.6,5.8,32,6.4,32c0.1,0,0.2,0,0.4-0.1l8-2.3c0.3-0.1,0.6-0.3,0.8-0.6c0.2-0.3,0.2-0.7,0.1-1l-0.9-2.9
	c0.7,0,1.5,0,2.6,0.1l2.1,0.2c1.4,0.1,2.6,0.2,3.4,0.3c0.3,0,0.7,0.1,1.1,0.1c1.9,0,3.3-0.7,3.8-2c0-0.1,0.1-0.2,0.1-0.3
	c1.1-0.7,1.8-1.8,1.9-3.1c0,0,0,0,0-0.1c0.7-0.7,1.2-1.6,1.2-2.6c0-0.3,0-0.6-0.1-0.9C31.3,16,31.6,15.1,31.6,14.2z M7.3,29
	L3.4,15.8l0-0.1l5.4-1.6l0,0.1c0,0.1,0,0.3,0,0.4l2.8,9.7c0,0.1,0.1,0.2,0.2,0.4l0.8,2.7L7.3,29z M28.4,15.4c-0.4,0.4-0.6,1-0.3,1.5
	c0.1,0.2,0.1,0.4,0.1,0.6c0,0.4-0.3,0.8-0.6,1c-0.5,0.3-0.7,0.8-0.6,1.4c0,0.1,0,0.2,0,0.3c0,0.5-0.4,0.9-0.9,1.1
	c-0.5,0.2-0.8,0.6-0.9,1.1c0,0.1,0,0.3-0.1,0.4c0,0.1-0.4,0.3-1.3,0.3c-0.3,0-0.5,0-0.7,0c-0.8-0.1-2.1-0.2-3.5-0.3l-2.1-0.2
	c-0.8-0.1-1.5-0.1-2.1-0.1c-0.5,0-1,0-1.5,0.1l-2.3-7.8c2-1.8,4.6-4.7,5.6-6.6c0-0.1,0.1-0.2,0.1-0.2c0.6-2,0.5-4.2,0.5-5.1
	c0.2-0.1,0.4-0.1,0.6-0.1c0.3,0.3,1,1.5,0.8,4c0,0.3-0.1,0.6-0.1,0.9c0,0.2-0.1,0.5-0.1,0.7c0,0.5-0.1,1-0.1,1.4
	c0,0.5,0.2,1,0.6,1.4c0.3,0.3,1.4,1.4,7.2,1.4c0.4,0,0.6,0,0.6,0c1,0,1.7,0.8,1.7,1.7C29,14.6,28.8,15.1,28.4,15.4z"/>
</svg>
