<!-- Generator: Adobe Illustrator 22.0.1, SVG Export Plug-In . SVG Version: 6.00 Build 0)  -->
<svg version="1.1" id="bugg" xmlns="http://www.w3.org/2000/svg" xmlns:xlink="http://www.w3.org/1999/xlink" x="0px" y="0px"
	 viewBox="0 0 32 32" style="enable-background:new 0 0 32 32;" xml:space="preserve">
<rect x="10" y="6.9" width="9.7" height="1.6"/>
<polygon points="5.2,9.8 6.4,8.7 7.5,9.8 8.4,8.9 7.3,7.7 8.4,6.6 7.5,5.7 6.4,6.8 5.2,5.7 4.3,6.6 5.5,7.7 4.3,8.9 "/>
<polygon points="7.8,12.8 5.8,14.8 4.9,13.9 4,14.8 5.8,16.6 8.8,13.7 "/>
<polygon points="4.9,21 4,21.9 5.8,23.7 8.8,20.8 7.8,19.9 5.8,21.9 "/>
<path d="M2.4,28.3V2.6h20.9v9.2c0.5-0.4,1-0.6,1.7-0.6c0.3,0,0.5,0,0.8,0.1V1.8c0-0.9-0.7-1.6-1.6-1.6H1.6C0.7,0.2,0,0.9,0,1.8v27.4
	c0,0.9,0.7,1.6,1.6,1.6h10.3c-0.2-0.8,0-1.7,0.6-2.4L2.4,28.3L2.4,28.3z"/>
<path d="M10,22.7h1.6c0.5-0.6,1.3-1,2.1-1h0.4c0,0,0-0.1,0-0.1l-0.6-0.5H10C10,21.1,10,22.7,10,22.7z"/>
<path d="M17.6,15c-0.1-0.3-0.2-0.6-0.2-1H10v1.6h7.2C17.3,15.4,17.4,15.2,17.6,15z"/>
<path d="M15.2,18c-0.2-0.2-0.6-0.2-0.9,0c-0.2,0.2-0.2,0.6,0,0.9l1.4,1.4c0.1,0.1,0.3,0.1,0.4,0.1h1.2c-0.8,1-1.4,2.3-1.6,3.6h-2
	c-0.3,0-0.6,0.3-0.6,0.6s0.3,0.6,0.6,0.6h2c0,1,0.3,2.1,0.7,2.9H16c-0.2,0-0.3,0.1-0.4,0.2l-1.4,1.5c-0.2,0.2-0.2,0.6,0,0.9
	c0.1,0.1,0.3,0.2,0.4,0.2c0.2,0,0.3-0.1,0.4-0.2l1.3-1.3h1c1.2,1.5,3,2.4,4.9,2.5V19.2h-5.7L15.2,18z"/>
<path d="M31.4,23.9h-2.1c-0.3-1.3-0.9-2.5-1.7-3.6h1.3c0.2,0,0.3,0,0.4-0.1l1.4-1.4c0.2-0.2,0.2-0.6,0-0.8c-0.2-0.2-0.6-0.2-0.9,0
	l-1.3,1.3H23v12.6c1.9-0.1,3.7-1.3,4.9-2.5h1l1.3,1.3c0.1,0.1,0.3,0.2,0.4,0.2c0.2,0,0.3-0.1,0.4-0.2c0.2-0.2,0.2-0.6,0-0.9
	l-1.4-1.5c-0.1-0.1-0.3-0.2-0.4-0.2h-0.5c0.5-0.8,0.7-1.9,0.7-2.9h2c0.3,0,0.6-0.3,0.6-0.6C32,24.1,31.7,23.9,31.4,23.9z"/>
<path d="M18.7,18.4h7.8c0-1.5-0.7-2.6-1.8-3.3l0.8-0.8c0.2-0.2,0.2-0.6,0-0.8c-0.2-0.2-0.6-0.2-0.9,0l-1.1,1.1
	c-0.3-0.1-0.6-0.1-0.9-0.1c-0.3,0-0.6,0-0.9,0.1l-1.1-1.1c-0.2-0.2-0.6-0.2-0.9,0c-0.2,0.2-0.2,0.6,0,0.9l0.8,0.8
	C19.4,15.8,18.7,16.9,18.7,18.4z"/>
</svg>
