<svg version="1.1" xmlns="http://www.w3.org/2000/svg" xmlns:xlink="http://www.w3.org/1999/xlink" x="0px" y="0px"
	 viewBox="0 0 32 32" style="enable-background:new 0 0 32 32;" xml:space="preserve">
<g>
	<path d="M27.6,2C27.6,2,27.6,2,27.6,2c-0.2-0.4-0.4-0.8-0.7-1.1c-0.3-0.3-0.7-0.6-1.1-0.7C25.4,0.1,25,0,24.5,0
		c-0.4,0-0.9,0.1-1.3,0.3c-0.4,0.2-0.8,0.4-1.1,0.7l-6.9,6.9c-0.5,0.5-0.9,1.2-1,1.9c0,0,0,0,0,0l-0.6,3.2c-0.1,0.4,0,0.7,0.3,1
		c0.2,0.2,0.5,0.3,0.8,0.3c0.1,0,0.1,0,0.2,0l3.2-0.6c0.7-0.1,1.3-0.5,1.9-1l6.9-6.9c0.3-0.3,0.6-0.7,0.7-1.1
		c0.2-0.4,0.3-0.8,0.3-1.3C27.8,2.9,27.8,2.4,27.6,2z M18.4,11.1c-0.2,0.2-0.5,0.3-0.8,0.4c0,0,0,0,0,0l-1.6,0.3l0.3-1.6
		c0.1-0.3,0.2-0.5,0.4-0.8c0,0,0,0,0,0L21,5.2l1.6,1.6L18.4,11.1z M25.6,3.8c-0.1,0.1-0.1,0.3-0.3,0.4l-1.2,1.2l-1.6-1.6l1.2-1.2
		c0.1-0.1,0.2-0.2,0.4-0.3c0.3-0.1,0.6-0.1,0.9,0c0.1,0.1,0.3,0.1,0.4,0.3c0.1,0.1,0.2,0.2,0.3,0.4c0.1,0.1,0.1,0.3,0.1,0.4
		C25.7,3.5,25.7,3.6,25.6,3.8z"/>
	<path d="M19.9,29.5h-8.4c-0.2,0-0.3,0.1-0.3,0.3v1.1c0,0.6,0.5,1.1,1.1,1.1H19c0.6,0,1.1-0.5,1.1-1.1v-1.1
		C20.1,29.6,20,29.5,19.9,29.5z"/>
	<path d="M24.5,10.4c0.1,0.5,0.2,1.1,0.2,1.7c0,3.2-1.7,6.2-4.5,7.8l-1.3,0.7v4.1h-6.4v-4.1l-1.3-0.7c-2.8-1.6-4.5-4.5-4.5-7.8
		c0-5,4-9,9-9c0.6,0,1.1,0.1,1.6,0.2l2.1-2c-1.2-0.4-2.5-0.6-3.8-0.6C9.3,0.6,4.2,5.7,4.2,12.1c0,4.3,2.3,8,5.7,10v4.1
		c0,0.6,0.5,1.1,1.1,1.1h9.3c0.6,0,1.1-0.5,1.1-1.1V22c3.4-2,5.7-5.7,5.7-10c0-1.3-0.2-2.5-0.6-3.7L24.5,10.4z"/>
</g>
</svg>
