<svg version="1.1" xmlns="http://www.w3.org/2000/svg" xmlns:xlink="http://www.w3.org/1999/xlink" x="0px" y="0px"
	 viewBox="0 0 37.91 37.911" style="enable-background:new 0 0 37.91 37.911;" xml:space="preserve">
<g id="calculated_x5F_amount">
	<g>
		<path d="M27.104,2.508H3.283c-0.457,0-0.775,0.319-0.775,0.775v5.015c0,0.457,0.319,0.775,0.775,0.775
			h23.822c0.457,0,0.776-0.319,0.776-0.775V3.283C27.88,2.826,27.561,2.508,27.104,2.508z M4.058,7.523V4.058h22.271v3.464H4.058z"
			/>
		<path d="M8.298,11.284H3.283c-0.457,0-0.775,0.319-0.775,0.775v5.015c0,0.457,0.319,0.775,0.775,0.775
			h5.015c0.457,0,0.775-0.319,0.775-0.775V12.06C9.073,11.603,8.755,11.284,8.298,11.284z M7.522,12.835v3.464H4.058v-3.464H7.522z"
			/>
		<path d="M8.298,20.06H3.283c-0.457,0-0.775,0.319-0.775,0.775v5.016c0,0.456,0.319,0.775,0.775,0.775h5.015
			c0.457,0,0.775-0.319,0.775-0.775v-5.016C9.073,20.379,8.755,20.06,8.298,20.06z M7.522,21.612v3.463H4.058v-3.463H7.522z"/>
		<path d="M8.298,28.836H3.283c-0.457,0-0.775,0.319-0.775,0.776v5.015c0,0.457,0.319,0.776,0.775,0.776
			h5.015c0.457,0,0.775-0.319,0.775-0.776v-5.015C9.073,29.155,8.755,28.836,8.298,28.836z M7.522,30.388v3.463H4.058v-3.463H7.522z
			"/>
		<path d="M27.104,11.284h-5.015c-0.457,0-0.776,0.319-0.776,0.775v5.015c0,0.457,0.319,0.775,0.776,0.775
			h5.015c0.457,0,0.776-0.319,0.776-0.775V12.06C27.88,11.603,27.561,11.284,27.104,11.284z M22.866,16.299v-3.464h3.463v3.464
			H22.866z"/>
		<path d="M17.701,11.284h-5.015c-0.457,0-0.775,0.319-0.775,0.775v5.015c0,0.457,0.319,0.775,0.775,0.775
			h5.015c0.457,0,0.775-0.319,0.775-0.775V12.06C18.477,11.603,18.158,11.284,17.701,11.284z M16.926,12.835v3.464h-3.464v-3.464
			H16.926z"/>
		<path d="M17.701,20.06h-5.015c-0.457,0-0.775,0.319-0.775,0.775v5.016c0,0.456,0.319,0.775,0.775,0.775
			h5.015c0.457,0,0.775-0.319,0.775-0.775v-5.016C18.477,20.379,18.158,20.06,17.701,20.06z M16.926,21.612v3.463h-3.464v-3.463
			H16.926z"/>
		<path d="M17.701,28.836h-5.015c-0.457,0-0.775,0.319-0.775,0.776v5.015c0,0.457,0.319,0.776,0.775,0.776
			h5.015c0.457,0,0.775-0.319,0.775-0.776v-5.015C18.477,29.155,18.158,28.836,17.701,28.836z M16.926,30.388v3.463h-3.464v-3.463
			H16.926z"/>
		<path d="M30.388,19.022V2.029c0-1.157-0.873-2.029-2.03-2.029H2.029C0.872,0,0,0.872,0,2.029v33.852
			c0,1.157,0.872,2.03,2.029,2.03h26.329c5.267,0,9.552-4.285,9.552-9.552C37.91,23.861,34.753,19.954,30.388,19.022z
			 M36.359,28.359c0,4.412-3.589,8.001-8.001,8.001s-8.001-3.589-8.001-8.001s3.589-8.002,8.001-8.002S36.359,23.947,36.359,28.359z
			 M28.836,18.859c-0.046-0.005-0.095-0.013-0.144-0.019c-0.117-0.017-0.234-0.033-0.334-0.033c-5.266,0-9.551,4.285-9.551,9.552
			c0,3.204,1.647,6.224,4.331,8.001H2.029c-0.295,0-0.478-0.183-0.478-0.478V2.029c0-0.295,0.183-0.479,0.478-0.479h26.329
			c0.296,0,0.478,0.184,0.478,0.479V18.859z"/>
		<path d="M33.374,25.703H23.343c-0.456,0-0.775,0.319-0.775,0.775c0,0.457,0.319,0.776,0.775,0.776h10.031
			c0.456,0,0.775-0.319,0.775-0.776C34.149,26.022,33.83,25.703,33.374,25.703z"/>
		<path d="M33.374,29.464H23.343c-0.456,0-0.775,0.319-0.775,0.775c0,0.457,0.319,0.776,0.775,0.776h10.031
			c0.456,0,0.775-0.319,0.775-0.776C34.149,29.783,33.83,29.464,33.374,29.464z"/>
	</g>
</g>
<g id="Layer_1">
</g>
</svg>
