<!-- Generator: Adobe Illustrator 22.0.1, SVG Export Plug-In . SVG Version: 6.00 Build 0)  -->
<svg version="1.1" id="Layer_1" xmlns="http://www.w3.org/2000/svg" xmlns:xlink="http://www.w3.org/1999/xlink" x="0px" y="0px"
	 viewBox="0 0 32 32" style="enable-background:new 0 0 32 32;" xml:space="preserve">
<g>
	<path d="M20.7,11.3c-0.5-0.5-1.4-0.5-1.9,0L16,14.1l-2.8-2.8c-0.5-0.5-1.4-0.5-1.9,0s-0.5,1.4,0,1.9l2.8,2.8l-2.8,2.8
		c-0.5,0.5-0.5,1.4,0,1.9c0.3,0.3,0.6,0.4,1,0.4c0.3,0,0.7-0.1,1-0.4l2.8-2.8l2.8,2.8c0.3,0.3,0.6,0.4,1,0.4c0.3,0,0.7-0.1,1-0.4
		c0.5-0.5,0.5-1.4,0-1.9l-3-2.8l2.8-2.8C21.3,12.6,21.3,11.8,20.7,11.3z"/>
	<path d="M27.3,4.7c-3-3-7-4.7-11.3-4.7S7.7,1.7,4.7,4.7S0,11.7,0,16s1.7,8.3,4.7,11.3S11.7,32,16,32s8.3-1.7,11.3-4.7
		C33.6,21.1,33.6,10.9,27.3,4.7z M25.4,25.4c-2.5,2.5-5.8,3.9-9.4,3.9c-3.5,0-6.9-1.4-9.4-3.9S2.7,19.6,2.7,16s1.4-6.9,3.9-9.4
		s5.8-3.9,9.4-3.9s6.9,1.4,9.4,3.9C30.6,11.8,30.6,20.2,25.4,25.4z"/>
</g>
</svg>
