<svg version="1.1" xmlns="http://www.w3.org/2000/svg" xmlns:xlink="http://www.w3.org/1999/xlink" x="0px" y="0px"
	 viewBox="0 0 32 32" style="enable-background:new 0 0 32 32;" xml:space="preserve">
<path d="M18.6,16L31.5,3.1c0.7-0.7,0.7-1.9,0-2.6c-0.7-0.7-1.9-0.7-2.6,0L16,13.4L3.1,0.5c-0.7-0.7-1.9-0.7-2.6,0
	c-0.7,0.7-0.7,1.9,0,2.6L13.4,16L0.5,28.9c-0.7,0.7-0.7,1.9,0,2.6C0.9,31.8,1.4,32,1.8,32c0.5,0,0.9-0.2,1.3-0.5L16,18.6l12.9,12.9
	c0.4,0.4,0.8,0.5,1.3,0.5c0.5,0,0.9-0.2,1.3-0.5c0.7-0.7,0.7-1.9,0-2.6L18.6,16z"/>
</svg>
