<?xml version="1.0" encoding="iso-8859-1"?>
<!-- Generator: Adobe Illustrator 23.0.1, SVG Export Plug-In . SVG Version: 6.00 Build 0)  -->
<svg version="1.1" xmlns="http://www.w3.org/2000/svg" xmlns:xlink="http://www.w3.org/1999/xlink" x="0px" y="0px"
	 viewBox="0 0 16 16" style="enable-background:new 0 0 16 16;" xml:space="preserve">
<g id="pass-show">
	<g>
		<g>
			<path d="M7.999,13.819c-3.671,0-6.872-2.252-7.965-5.603c-0.046-0.14-0.046-0.291,0-0.432C1.128,4.433,4.33,2.181,7.999,2.181
				c3.671,0,6.872,2.252,7.966,5.603c0.046,0.14,0.046,0.291,0,0.432C14.872,11.567,11.67,13.819,7.999,13.819L7.999,13.819z
				 M1.43,8c0.972,2.659,3.583,4.43,6.57,4.43c2.988,0,5.599-1.77,6.571-4.43c-0.973-2.659-3.583-4.43-6.571-4.43
				C5.012,3.57,2.401,5.341,1.43,8L1.43,8z"/>
		</g>
		<g>
			<path d="M7.999,11.764c-2.075,0-3.764-1.689-3.764-3.764c0-0.384,0.311-0.695,0.695-0.695c0.384,0,0.695,0.311,0.695,0.695
				c0,1.31,1.065,2.375,2.375,2.375c1.31,0,2.374-1.065,2.374-2.375c0-1.309-1.064-2.374-2.374-2.374
				c-0.384,0-0.695-0.311-0.695-0.695c0-0.384,0.311-0.695,0.695-0.695c2.075,0,3.763,1.688,3.763,3.763
				C11.762,10.076,10.074,11.764,7.999,11.764L7.999,11.764z"/>
		</g>
	</g>
</g>
<g id="Layer_1">
</g>
</svg>
